# xmcd CD database file
#
# Track frame offsets:
#	150
#	26987
#	58365
#	80941
#	100209
#	139957
#	171294
#
# Disc length: 2740 seconds
#
# Revision: 0
# Processed by: cddbd v1.5.2PL0 Copyright (c) Steve Scherf et al.
# Submitted via: CDex 1.70beta2
#
DISCID=6b0ab207
DTITLE=Alexander Valnov Quintett - The Life Generator
DYEAR=2014
DGENRE=Jazz
TTITLE0=You're Absolutely Right
TTITLE1=The Just in Case Blues
TTITLE2=Smiley
TTITLE3=Say Goodbye to Your Sadness
TTITLE4=Big Hope
TTITLE5=Some Changes
TTITLE6=The Life Generator
EXTD=YEAR: 2014
EXTT0=
EXTT1=
EXTT2=
EXTT3=
EXTT4=
EXTT5=
EXTT6=
PLAYORDER=
